HIERARCHY
ROOT root     
{
	OFFSET 0.0000 0.0000 0.0000
	CHANNELS 6 Xposition Yposition Zposition Zrotation Yrotation Xrotation
	JOINT pelvis   
	{
		OFFSET 0.0000 0.0000 0.0000
		CHANNELS 3 Zrotation Yrotation Xrotation
		JOINT thorax   
		{
			OFFSET 0.0000 23.0750 -5.0000
			CHANNELS 3 Zrotation Yrotation Xrotation
			JOINT rclavicle
			{
				OFFSET 0.0000 28.0009 0.0000
				CHANNELS 3 Zrotation Yrotation Xrotation
				JOINT rhumerus 
				{
					OFFSET -18.5725 5.5939 0.0000
					CHANNELS 3 Zrotation Yrotation Xrotation
					JOINT rradius  
					{
						OFFSET -24.8459 0.0000 0.0000
						CHANNELS 3 Zrotation Yrotation Xrotation
						JOINT rhand    
						{
							OFFSET -24.5477 0.0000 0.0000
							CHANNELS 3 Zrotation Yrotation Xrotation
							End Site
							{
								OFFSET -8.1826 0.0000 0.0000
							}
						}
					}
				}
			}
			JOINT lclavicle
			{
				OFFSET 0.0000 28.0009 0.0000
				CHANNELS 3 Zrotation Yrotation Xrotation
				JOINT lhumerus 
				{
					OFFSET 18.5725 5.5939 0.0000
					CHANNELS 3 Zrotation Yrotation Xrotation
					JOINT lradius  
					{
						OFFSET 24.8459 0.0000 0.0000
						CHANNELS 3 Zrotation Yrotation Xrotation
						JOINT lhand    
						{
							OFFSET 24.5477 0.0000 0.0000
							CHANNELS 3 Zrotation Yrotation Xrotation
							End Site
							{
								OFFSET 8.1826 0.0000 0.0000
							}
						}
					}
				}
			}
			JOINT head     
			{
				OFFSET 0.0000 35.2030 0.0000
				CHANNELS 3 Zrotation Yrotation Xrotation
				End Site
				{
					OFFSET 0.0000 11.7343 0.0000
				}
			}
		}
		JOINT rfemur   
		{
			OFFSET -8.2817 0.0000 0.0000
			CHANNELS 3 Zrotation Yrotation Xrotation
			JOINT rtibia   
			{
				OFFSET 0.0000 -43.3627 0.0000
				CHANNELS 3 Zrotation Yrotation Xrotation
				JOINT rfoot    
				{
					OFFSET 0.0000 -38.2947 0.0000
					CHANNELS 3 Zrotation Yrotation Xrotation
					JOINT rtoes    
					{
						OFFSET 0.0000 0.0000 16.6054
						CHANNELS 3 Zrotation Yrotation Xrotation
						End Site
						{
							OFFSET 0.0000 0.0000 5.5351
						}
					}
				}
			}
		}
		JOINT lfemur   
		{
			OFFSET 8.2817 0.0000 0.0000
			CHANNELS 3 Zrotation Yrotation Xrotation
			JOINT ltibia   
			{
				OFFSET 0.0000 -43.3627 0.0000
				CHANNELS 3 Zrotation Yrotation Xrotation
				JOINT lfoot    
				{
					OFFSET 0.0000 -38.2947 0.0000
					CHANNELS 3 Zrotation Yrotation Xrotation
					JOINT ltoes    
					{
						OFFSET 0.0000 0.0000 16.6054
						CHANNELS 3 Zrotation Yrotation Xrotation
						End Site
						{
							OFFSET 0.0000 0.0000 5.5351
						}
					}
				}
			}
		}
	}
}
MOTION
Frames: 23
Frame Time: .0333333
27.807 79.543 5.7182 8.771 -86.5173 21.1891 0 -0 0 -2.44894 -11.7896 20.3629 16.6092 -12.2536 6.25792e-05 59.5946 -10.1559 20.2903 -180 70.4145 -180 -14.6865 3.24136 -0.417799 -5.95799 5.96415 -6.9612e-06 -61.5054 13.8447 5.30467 180 -49.5457 -180 8.48907 0.215895 0.0159993 5.58718 5.49026 -24.5656 6.75588 -20.9948 -59.188 -0 -0 47.8131 -5.81926e-08 -5.11489 0.217002 -0.0194004 -3.25056e-07 -69.0559 -12.0266 14.3492 -61.1614 -0 -0 49.9593 -3.999e-06 11.8835 -5.45762 -1.14658 -8.16087e-06 -38.7614 
27.748 79.537 5.6713 8.98444 -85.7529 20.7688 0 -0 0 -2.30496 -11.5632 20.4769 16.3207 -11.8906 -3.87967e-05 59.9895 -10.424 19.9644 180 70.6808 180 -14.8594 3.17535 -0.414191 -5.95887 5.90183 -1.5359e-06 -61.5859 13.7221 5.82729 180 -49.5457 -180 8.44821 0.186595 0.0137997 5.49401 5.29305 -24.8398 6.71581 -21.4324 -58.8888 -0 -0 47.9731 1.17667e-08 -5.4705 0.0204998 -0.00200002 -2.73484e-09 -69.0092 -11.7728 13.8496 -60.8411 -0 -0 49.8644 1.69263e-05 11.7239 -5.36505 -1.1116 -6.96465e-06 -38.8335 
27.679 79.543 5.6249 9.10643 -84.9781 20.416 0 -0 0 -2.14369 -11.3052 20.5753 15.9959 -11.4921 6.78805e-05 60.364 -10.6769 19.5771 -180 70.8989 -180 -15.0263 3.11076 -0.410391 -5.94811 5.84118 1.89887e-06 -61.6473 13.5721 6.39164 180 -49.5556 -180 8.40292 0.165199 0.0121 5.41261 5.07785 -25.1229 6.66756 -21.886 -58.5406 -0 -0 48.0978 -2.35563e-08 -5.83591 -0.1626 0.0166003 2.856e-07 -68.971 -11.511 13.3382 -60.482 -0 -0 49.7359 8.95264e-06 11.5585 -5.25657 -1.07339 2.68717e-07 -38.9153 
27.6 79.559 5.5801 9.24231 -84.1877 20.0432 0 -0 0 -1.97301 -11.0026 20.6401 15.6498 -11.0825 5.11085e-05 60.6904 -10.8846 19.1431 180 71.069 180 -15.1924 3.03003 -0.404209 -5.91633 5.76833 1.53529e-06 -61.6973 13.4071 6.9907 180 -49.5744 -180 8.3473 0.147206 0.0107003 5.3529 4.83535 -25.3987 6.60467 -22.3471 -58.1591 -0 -0 48.1919 -4.9659e-08 -6.2162 -0.330102 0.0360002 2.9379e-07 -68.9343 -11.2483 12.8082 -60.093 -0 -0 49.5726 6.44221e-07 11.3938 -5.12952 -1.03221 3.66739e-06 -39.0108 
27.51 79.587 5.5368 9.3215 -83.3747 19.7144 0 -0 0 -1.78919 -10.6671 20.6809 15.2774 -10.6577 -1.51585e-06 60.9749 -11.0252 18.657 180 71.1973 180 -15.3418 2.93624 -0.395594 -5.87178 5.70297 2.29057e-06 -61.7274 13.2093 7.62772 180 -49.6048 180 8.28956 0.140302 0.0102003 5.3166 4.5791 -25.6539 6.53408 -22.8191 -57.7283 -0 -0 48.2462 -6.75187e-08 -6.60361 -0.482398 0.0558001 3.43122e-07 -68.9001 -10.9795 12.2709 -59.6663 -0 -0 49.3776 4.65677e-06 11.2271 -4.98767 -0.988696 6.68344e-06 -39.1123 
27.411 79.626 5.4959 9.39634 -82.5539 19.3821 0 -0 0 -1.60038 -10.2918 20.6839 14.8893 -10.24 1.16367e-05 61.1901 -11.0648 18.1322 180 71.2844 180 -15.4895 2.80843 -0.381982 -5.80724 5.63527 -1.29875e-06 -61.745 12.9909 8.29453 180 -49.645 -180 8.22374 0.1391 0.00999967 5.31191 4.30197 -25.8747 6.45093 -23.2953 -57.2624 -0 -0 48.2661 -4.10641e-07 -7.00038 -0.617796 0.0759007 -1.42987e-07 -68.8634 -10.7083 11.7189 -59.2102 -0 -0 49.1487 7.62917e-07 11.0642 -4.82941 -0.943089 -1.41635e-06 -39.2237 
27.302 79.676 5.4581 9.47106 -81.7287 19.042 0 -0 0 -1.41052 -9.87803 20.6479 14.4925 -9.84064 5.05784e-05 61.3251 -10.9757 17.5754 180 71.3439 180 -15.6453 2.63278 -0.361783 -5.72263 5.56806 -1.98841e-07 -61.7505 12.7543 8.98676 180 -49.6902 -180 8.14968 0.141102 0.0101002 5.34171 4.00616 -26.0491 6.35721 -23.7771 -56.7619 -0 -0 48.2496 6.66078e-07 -7.40342 -0.735804 0.0955997 1.8094e-07 -68.821 -10.4359 11.154 -58.725 -0 -0 48.8866 -4.93644e-06 10.9069 -4.65532 -0.896 -2.33687e-06 -39.3432 
27.182 79.737 5.4229 9.49845 -80.8911 18.7372 0 -0 0 -1.21455 -9.44002 20.5825 14.0815 -9.45024 -2.63593e-05 61.387 -10.7422 16.9725 180 71.3828 180 -15.8102 2.41405 -0.335217 -5.62749 5.51837 1.89309e-06 -61.7368 12.4917 9.69874 180 -49.742 -180 8.07073 0.148599 0.0104999 5.40298 3.70601 -26.1726 6.25995 -24.2662 -56.2125 -0 -0 48.1906 -4.884e-07 -7.80435 -0.83709 0.114701 -5.83042e-07 -68.7761 -10.1568 10.5865 -58.2056 -0 -0 48.5936 1.66284e-06 10.7513 -4.47044 -0.847906 2.36609e-06 -39.4618 
27.054 79.809 5.3922 9.52428 -80.0574 18.4265 0 -0 0 -1.0274 -8.96865 20.4764 13.6751 -9.09724 4.0748e-06 61.3434 -10.3329 16.3463 180 71.4035 180 -16.0162 2.1196 -0.298201 -5.50908 5.46962 2.53896e-06 -61.7179 12.2248 10.4187 180 -49.7954 -180 7.9776 0.150001 0.0104998 5.50296 3.38931 -26.2412 6.15073 -24.7585 -55.6317 -0 -0 48.0964 -1.54212e-07 -8.20496 -0.920188 0.132698 1.07659e-07 -68.7218 -9.87889 10.0064 -57.6593 -0 -0 48.2681 3.9933e-06 10.6053 -4.27071 -0.798915 2.43736e-07 -39.5883 
26.915 79.891 5.365 9.51203 -79.2235 18.14 0 -0 0 -0.841537 -8.48002 20.3427 13.267 -8.76535 1.17106e-05 61.2055 -9.74312 15.6757 180 71.4172 180 -16.268 1.75986 -0.251511 -5.37843 5.4377 3.75459e-06 -61.6885 11.9506 11.1384 180 -49.8448 180 7.87383 0.145796 0.00999977 5.63429 3.07072 -26.2576 6.03997 -25.2594 -55.0044 -0 -0 47.9584 1.60895e-07 -8.59678 -0.985706 0.148998 -2.74119e-06 -68.6642 -9.59506 9.4245 -57.0823 -0 -0 47.914 1.4481e-06 10.4633 -4.06157 -0.749408 -5.81552e-07 -39.7146 
26.768 79.983 5.3422 9.47117 -78.3854 17.8726 0 -0 0 -0.662984 -7.97654 20.179 12.8663 -8.45865 2.04059e-05 60.9551 -8.96147 14.9574 -180 71.4308 -180 -16.582 1.32515 -0.193092 -5.23146 5.4189 -2.51623e-06 -61.6531 11.6826 11.8477 180 -49.8876 -180 7.75587 0.130097 0.00879974 5.79677 2.74894 -26.2295 5.92569 -25.7657 -54.3406 -0 -0 47.7785 8.42771e-07 -8.97758 -1.03291 0.163201 -1.17653e-06 -68.6013 -9.30787 8.83923 -56.4761 -0 -0 47.5317 1.80939e-06 10.327 -3.84278 -0.699702 -2.9607e-06 -39.8409 
26.613 80.085 5.3237 9.41058 -77.557 17.6102 0 -0 0 -0.492901 -7.46398 19.9916 12.4791 -8.17414 -2.35059e-05 60.5862 -7.9827 14.1815 -180 71.4449 -180 -16.969 0.815302 -0.121603 -5.06752 5.41237 5.27533e-06 -61.6167 11.4306 12.534 180 -49.9205 -180 7.62317 0.0988997 0.00659994 5.98725 2.42551 -26.1637 5.8102 -26.2817 -53.6351 -0 -0 47.5577 4.07772e-07 -9.34408 -1.06132 0.174601 1.812e-06 -68.5365 -9.0172 8.25316 -55.8409 -0 -0 47.121 -4.74963e-06 10.1967 -3.61523 -0.649801 1.19634e-07 -39.969 
26.451 80.196 5.3098 9.32068 -76.7274 17.3683 0 -0 0 -0.332321 -6.94707 19.7827 12.1096 -7.90597 -4.22865e-05 60.0897 -6.80947 13.3334 180 71.4823 180 -17.4281 0.233895 -0.0357994 -4.8856 5.41649 -7.02476e-07 -61.5822 11.2055 13.1878 180 -49.937 -180 7.47661 0.0500996 0.00329999 6.2014 2.1016 -26.0705 5.69402 -26.8054 -52.8921 -0 -0 47.2952 1.6617e-07 -9.69382 -1.0703 0.1828 -1.27563e-06 -68.4732 -8.72335 7.66598 -55.1807 -0 -0 46.6863 1.06143e-05 10.0717 -3.37951 -0.599904 3.42056e-06 -40.0997 
26.282 80.315 5.3002 9.19696 -75.9032 17.147 0 -0 0 -0.179416 -6.43006 19.555 11.7616 -7.64811 5.11694e-06 59.4529 -5.44249 12.3955 180 71.5429 180 -17.9548 -0.412995 0.0651986 -4.68538 5.42787 -6.98529e-06 -61.5531 11.0179 13.7974 180 -49.9345 -180 7.31824 -0.0168997 -0.0011 6.43468 1.77709 -25.963 5.5788 -27.3349 -52.1127 -0 -0 46.9907 2.47693e-07 -10.0252 -1.05891 0.187196 -1.78351e-06 -68.4143 -8.42545 7.08169 -54.4967 -0 -0 46.2285 2.86746e-06 9.95121 -3.13653 -0.550006 2.61429e-06 -40.2311 
26.107 80.442 5.2938 9.0304 -75.0886 16.9542 0 -0 0 -0.0253775 -5.9215 19.316 11.4315 -7.38168 -4.71969e-06 58.6761 -3.89918 11.3395 -180 71.6461 -180 -18.5269 -1.10639 0.180504 -4.47204 5.44965 8.64716e-07 -61.5281 10.8724 14.3551 180 -49.9131 180 7.15417 -0.0986003 -0.0062001 6.67691 1.4567 -25.8515 5.4706 -27.8707 -51.2926 -0 -0 46.642 -2.85992e-07 -10.3373 -1.02561 0.187098 -1.36011e-06 -68.3633 -8.11924 6.50549 -53.7903 -0 -0 45.7519 -4.42413e-07 9.83208 -2.88906 -0.500505 3.86987e-06 -40.3643 
25.931 80.576 5.2931 8.87705 -74.2833 16.7482 0 -0 0 0.107395 -5.40617 19.054 11.1449 -7.13862 -1.2503e-05 57.7131 -2.15621 10.1798 180 71.819 180 -19.1461 -1.86351 0.314296 -4.226 5.45863 1.63666e-06 -61.5244 10.7886 14.8536 180 -49.8687 -180 6.98439 -0.197294 -0.0119997 6.93653 1.12251 -25.7452 5.35507 -28.4067 -50.457 -0 -0 46.2615 1.15536e-06 -10.6326 -0.970407 0.182199 9.11645e-07 -68.3186 -7.82089 5.92709 -53.073 -0 -0 45.2531 -4.38155e-06 9.72392 -2.63051 -0.450602 -2.16234e-07 -40.5036 
25.752 80.715 5.2951 8.68147 -73.4915 16.5734 0 -0 0 0.245986 -4.90191 18.7817 10.8768 -6.8777 3.84026e-06 56.5877 -0.250765 8.86724 180 72.0863 180 -19.7649 -2.64665 0.461194 -3.96757 5.46964 2.5092e-06 -61.5259 10.7589 15.2859 180 -49.8028 180 6.82083 -0.303003 -0.0180998 7.19392 0.788291 -25.652 5.2469 -28.9391 -49.591 -0 -0 45.8395 4.94067e-07 -10.9108 -0.8908 0.171699 -2.15982e-07 -68.2858 -7.51621 5.36096 -52.3451 -0 -0 44.7417 1.00208e-05 9.6174 -2.36804 -0.401096 -3.64034e-06 -40.641 
25.573 80.86 5.3006 8.45986 -72.7193 16.4226 0 -0 0 0.385474 -4.40216 18.4952 10.6338 -6.60975 -5.57184e-07 55.2739 1.81831 7.39887 -180 72.4778 -180 -20.3664 -3.45792 0.62133 -3.69185 5.47334 -8.75913e-06 -61.5382 10.7884 15.6487 180 -49.7148 180 6.66867 -0.411303 -0.0240001 7.44788 0.446172 -25.5791 5.14055 -29.4611 -48.705 -0 -0 45.381 9.04133e-07 -11.175 -0.785793 0.155203 6.80846e-07 -68.2631 -7.21089 4.8058 -51.612 -0 -0 44.218 2.14996e-06 9.51633 -2.09989 -0.351901 -1.0696e-06 -40.7793 
25.395 81.009 5.3094 8.22049 -71.9701 16.2884 0 -0 0 0.529018 -3.90514 18.1933 10.4112 -6.33483 -3.38456e-06 53.7587 4.0406 5.76582 180 73.0391 180 -20.9232 -4.29402 0.793206 -3.40203 5.46694 -2.58988e-06 -61.557 10.8766 15.9401 180 -49.6089 -180 6.5344 -0.516102 -0.0295009 7.69255 0.0939969 -25.5278 5.03752 -29.9675 -47.8096 -0 -0 44.8891 -3.3253e-07 -11.4272 -0.654793 0.132399 3.78427e-07 -68.2493 -6.90759 4.26439 -50.8816 -0 -0 43.6845 1.00961e-05 9.42119 -1.82662 -0.302996 5.60009e-08 -40.9155 
25.221 81.162 5.3214 7.96959 -71.2475 16.1721 0 -0 0 0.679482 -3.40885 17.8765 10.2024 -6.05373 2.1399e-06 52.0339 6.40193 3.96487 -180 73.8078 -180 -21.4177 -5.15591 0.975696 -3.10259 5.44873 -6.46062e-06 -61.5784 11.0193 16.1605 180 -49.4841 -180 6.42297 -0.611502 -0.0342991 7.92224 -0.270553 -25.4996 4.93577 -30.4494 -46.9095 -0 -0 44.3674 2.23723e-08 -11.6708 -0.496796 0.1026 -3.47785e-08 -68.243 -6.60826 3.7398 -50.1589 -0 -0 43.1428 -2.34003e-07 9.33304 -1.54886 -0.254494 1.79389e-06 -41.0492 
25.051 81.317 5.3364 7.7068 -70.553 16.0772 0 -0 0 0.841165 -2.91024 17.5446 9.99981 -5.76895 1.30852e-06 50.0865 8.88491 1.99898 -180 74.8239 -180 -21.837 -6.05036 1.16817 -2.79925 5.41852 -4.89001e-06 -61.5943 11.2093 16.3108 180 -49.3449 -180 6.33848 -0.692303 -0.0383008 8.13156 -0.647852 -25.4965 4.83564 -30.8997 -46.013 -0 -0 43.8175 -2.2837e-08 -11.908 -0.312103 0.0658 -6.38447e-07 -68.243 -6.3145 3.23604 -49.4495 -0 -0 42.5965 -1.9734e-06 9.2523 -1.26753 -0.206503 -1.77361e-06 -41.1774 
24.889 81.475 5.3551 7.44797 -69.9006 15.9899 0 -0 0 1.01047 -2.40565 17.1953 9.79134 -5.47463 6.87583e-06 47.9184 11.4528 -0.132493 -180 76.1214 -180 -22.1711 -6.97872 1.36894 -2.49751 5.37655 -4.58013e-06 -61.5974 11.4382 16.3948 180 -49.1945 -180 6.28264 -0.753699 -0.0413992 8.31733 -1.03882 -25.5157 4.73131 -31.3128 -45.1261 -0 -0 43.2452 2.33738e-07 -12.1407 -0.1017 0.0218998 -1.90531e-07 -68.2452 -6.03308 2.75336 -48.7565 -0 -0 42.0446 -1.29191e-06 9.18191 -0.982317 -0.158801 -4.86762e-07 -41.2948 
24.734 81.635 5.3774 7.19469 -69.288 15.9115 0 -0 0 1.19315 -1.89195 16.8355 9.56536 -5.17351 -5.26694e-06 45.5243 14.0774 -2.41452 180 77.7354 180 -22.422 -7.95215 1.57857 -2.20528 5.32479 1.05104e-06 -61.5799 11.6946 16.417 180 -49.0369 -180 6.25458 -0.794307 -0.0434001 8.47518 -1.44138 -25.557 4.62393 -31.6826 -44.2551 -0 -0 42.6532 -2.91432e-07 -12.3701 0.1336 -0.0293005 -2.58117e-07 -68.249 -5.76492 2.29693 -48.0833 -0 -0 41.4888 1.15639e-07 9.1209 -0.694993 -0.111601 -1.77491e-07 -41.4035 
